# xmcd CD database file
#
# Track frame offsets:
#	150
#	30507
#	56712
#	88800
#	107080
#	129210
#	145467
#	169270
#	182782
#	202685
#	228717
#	249862
#	278425
#	297335
#
# Disc length: 4331 seconds
#
# Revision: 0
# Processed by: cddbd v1.5.2PL0 Copyright (c) Steve Scherf et al.
# Submitted via: CDex 1.70beta2
#
DISCID=c310e90e
DTITLE=宗次郎 - 宗次郎オリジナルBEST featuring voice
DYEAR=2002
DGENRE=New Age
TTITLE0=静かな地球の上で featuring 白鳥英美子
TTITLE1=道行(VOICE MIX) featuring EPO
TTITLE2=希望へのトレッキング
TTITLE3=森のトロール
TTITLE4=月夜の森Ⅲ～動物たちの夢見る頃に～ featuring 白鳥英美子
TTITLE5=リュブリャーナの青い空
TTITLE6=天空のオリオン
TTITLE7=あゆみ(MIX 2002)
TTITLE8=夢の道
TTITLE9=すべては森の神にまかせて
TTITLE10=未だ見ぬ人へ
TTITLE11=根尾の夏風に吹かれて
TTITLE12=夢(2002 VERSION)
TTITLE13=静かな地球の上で
EXTD=YEAR: 2002
EXTT0=
EXTT1=
EXTT2=
EXTT3=
EXTT4=
EXTT5=
EXTT6=
EXTT7=
EXTT8=
EXTT9=
EXTT10=
EXTT11=
EXTT12=
EXTT13=
PLAYORDER=
